<svg width="24" height="25" viewBox="0 0 24 25" fill="none" xmlns="http://www.w3.org/2000/svg">
<path d="M3.96944 15.0105L11.4694 7.34461C11.5391 7.27333 11.6218 7.21679 11.7129 7.17821C11.8039 7.13963 11.9015 7.11978 12.0001 7.11978C12.0986 7.11978 12.1962 7.13963 12.2873 7.17821C12.3783 7.21679 12.461 7.27333 12.5307 7.34461L20.0307 15.0105C20.1714 15.1543 20.2505 15.3494 20.2505 15.5528C20.2505 15.7562 20.1714 15.9513 20.0307 16.0952C19.89 16.239 19.6991 16.3198 19.5001 16.3198C19.301 16.3198 19.1102 16.239 18.9694 16.0952L12.0001 8.97072L5.0307 16.0952C4.96101 16.1664 4.87829 16.2229 4.78724 16.2614C4.6962 16.3 4.59862 16.3198 4.50007 16.3198C4.40152 16.3198 4.30394 16.3 4.2129 16.2614C4.12185 16.2229 4.03913 16.1664 3.96944 16.0952C3.89976 16.0239 3.84449 15.9394 3.80678 15.8463C3.76906 15.7533 3.74965 15.6535 3.74965 15.5528C3.74965 15.4521 3.76906 15.3523 3.80678 15.2593C3.84449 15.1662 3.89976 15.0817 3.96944 15.0105Z" fill="#4E4E5B"/>
</svg>
