<svg width="9" height="14" viewBox="0 0 9 14" fill="#B7B7CB" xmlns="http://www.w3.org/2000/svg">
<path d="M1.05781 1.19233C0.999741 1.13426 0.953679 1.06532 0.922252 0.98945C0.890826 0.913579 0.87465 0.832261 0.87465 0.75014C0.87465 0.668018 0.890826 0.5867 0.922252 0.510829C0.953679 0.434959 0.999741 0.366021 1.05781 0.307952C1.11588 0.249883 1.18482 0.203821 1.26069 0.172394C1.33656 0.140967 1.41788 0.124791 1.5 0.124791C1.58212 0.124792 1.66344 0.140968 1.73931 0.172394C1.81518 0.203821 1.88412 0.249883 1.94219 0.307952L8.19218 6.55795C8.2503 6.616 8.29639 6.68493 8.32785 6.7608C8.3593 6.83668 8.37549 6.91801 8.37549 7.00014C8.37549 7.08228 8.3593 7.1636 8.32785 7.23948C8.29639 7.31535 8.2503 7.38428 8.19218 7.44233L1.94218 13.6923C1.82491 13.8096 1.66585 13.8755 1.5 13.8755C1.33414 13.8755 1.17508 13.8096 1.05781 13.6923C0.940533 13.5751 0.874648 13.416 0.874649 13.2501C0.874649 13.0843 0.940533 12.9252 1.05781 12.808L6.8664 7.00014L1.05781 1.19233Z" />
</svg>
