<svg width="26" height="26" viewBox="0 0 26 26" fill="none" xmlns="http://www.w3.org/2000/svg">
<path d="M22.75 15.4377V21.1252C22.75 21.5561 22.5788 21.9695 22.274 22.2742C21.9693 22.5789 21.556 22.7502 21.125 22.7502H4.875C4.44402 22.7502 4.0307 22.5789 3.72595 22.2742C3.4212 21.9695 3.25 21.5561 3.25 21.1252V15.4377C3.25 15.2222 3.3356 15.0155 3.48798 14.8631C3.64035 14.7108 3.84701 14.6252 4.0625 14.6252C4.27799 14.6252 4.48465 14.7108 4.63702 14.8631C4.7894 15.0155 4.875 15.2222 4.875 15.4377V21.1252H21.125V15.4377C21.125 15.2222 21.2106 15.0155 21.363 14.8631C21.5153 14.7108 21.722 14.6252 21.9375 14.6252C22.153 14.6252 22.3597 14.7108 22.512 14.8631C22.6644 15.0155 22.75 15.2222 22.75 15.4377ZM9.51234 8.7L12.1875 6.02382V15.4377C12.1875 15.6531 12.2731 15.8598 12.4255 16.0122C12.5778 16.1645 12.7845 16.2502 13 16.2502C13.2155 16.2502 13.4222 16.1645 13.5745 16.0122C13.7269 15.8598 13.8125 15.6531 13.8125 15.4377V6.02382L16.4877 8.7C16.6401 8.85245 16.8469 8.9381 17.0625 8.9381C17.2781 8.9381 17.4849 8.85245 17.6373 8.7C17.7898 8.54754 17.8755 8.34076 17.8755 8.12515C17.8755 7.90954 17.7898 7.70276 17.6373 7.55031L13.5748 3.48781C13.4994 3.41226 13.4098 3.35233 13.3111 3.31145C13.2125 3.27056 13.1068 3.24951 13 3.24951C12.8932 3.24951 12.7875 3.27056 12.6889 3.31145C12.5902 3.35233 12.5006 3.41226 12.4252 3.48781L8.36266 7.55031C8.2102 7.70276 8.12455 7.90954 8.12455 8.12515C8.12455 8.34076 8.2102 8.54754 8.36266 8.7C8.51511 8.85245 8.72189 8.9381 8.9375 8.9381C9.15311 8.9381 9.35989 8.85245 9.51234 8.7Z" fill="#89899C"/>
</svg>
